<mxfile host="app.diagrams.net" agent="Mozilla/5.0 (X11; Linux x86_64) AppleWebKit/537.36 (KHTML, like Gecko) Chrome/131.0.0.0 Safari/537.36" version="25.0.3">
  <diagram name="第 1 页" id="JLh_u_eclK7PWIMg6XK-">
    <mxGraphModel dx="698" dy="388" grid="1" gridSize="10" guides="1" tooltips="1" connect="1" arrows="1" fold="1" page="1" pageScale="1" pageWidth="827" pageHeight="1169" math="0" shadow="0">
      <root>
        <mxCell id="0" />
        <mxCell id="1" parent="0" />
        <mxCell id="AblfYPGntkIISl-miZuX-5" value="" style="edgeStyle=orthogonalEdgeStyle;rounded=0;orthogonalLoop=1;jettySize=auto;html=1;" edge="1" parent="1" source="AblfYPGntkIISl-miZuX-1" target="AblfYPGntkIISl-miZuX-4">
          <mxGeometry relative="1" as="geometry" />
        </mxCell>
        <mxCell id="AblfYPGntkIISl-miZuX-1" value="开始" style="rounded=1;whiteSpace=wrap;html=1;shadow=0;" vertex="1" parent="1">
          <mxGeometry x="375" y="60" width="120" height="60" as="geometry" />
        </mxCell>
        <mxCell id="AblfYPGntkIISl-miZuX-7" value="" style="edgeStyle=orthogonalEdgeStyle;rounded=0;orthogonalLoop=1;jettySize=auto;html=1;" edge="1" parent="1" source="AblfYPGntkIISl-miZuX-4" target="AblfYPGntkIISl-miZuX-6">
          <mxGeometry relative="1" as="geometry" />
        </mxCell>
        <mxCell id="AblfYPGntkIISl-miZuX-4" value="初始化ros节点为controller_mpc" style="whiteSpace=wrap;html=1;rounded=0;" vertex="1" parent="1">
          <mxGeometry x="375" y="200" width="120" height="60" as="geometry" />
        </mxCell>
        <mxCell id="AblfYPGntkIISl-miZuX-9" value="" style="edgeStyle=orthogonalEdgeStyle;rounded=0;orthogonalLoop=1;jettySize=auto;html=1;" edge="1" parent="1" source="AblfYPGntkIISl-miZuX-6" target="AblfYPGntkIISl-miZuX-8">
          <mxGeometry relative="1" as="geometry" />
        </mxCell>
        <mxCell id="AblfYPGntkIISl-miZuX-6" value="创建公共命名空间的句柄nh，进而创建发布者和订阅者" style="rounded=0;whiteSpace=wrap;html=1;" vertex="1" parent="1">
          <mxGeometry x="375" y="340" width="120" height="60" as="geometry" />
        </mxCell>
        <mxCell id="AblfYPGntkIISl-miZuX-21" value="" style="edgeStyle=orthogonalEdgeStyle;rounded=0;orthogonalLoop=1;jettySize=auto;html=1;" edge="1" parent="1" source="AblfYPGntkIISl-miZuX-8" target="AblfYPGntkIISl-miZuX-20">
          <mxGeometry relative="1" as="geometry" />
        </mxCell>
        <mxCell id="AblfYPGntkIISl-miZuX-8" value="创建私有命名空间的句柄nh_priv，进而读取两个私有配置参数并加载到规划模块中，调用computeSplineWithPoints函数&lt;font color=&quot;#cc0000&quot;&gt;&lt;b&gt;生成三次样条曲线（有详细流程图）&lt;/b&gt;&lt;/font&gt;" style="rounded=0;whiteSpace=wrap;html=1;" vertex="1" parent="1">
          <mxGeometry x="325" y="480" width="220" height="60" as="geometry" />
        </mxCell>
        <mxCell id="AblfYPGntkIISl-miZuX-10" value="" style="edgeStyle=orthogonalEdgeStyle;rounded=0;orthogonalLoop=1;jettySize=auto;html=1;" edge="1" source="AblfYPGntkIISl-miZuX-11" target="AblfYPGntkIISl-miZuX-13" parent="1">
          <mxGeometry relative="1" as="geometry" />
        </mxCell>
        <mxCell id="AblfYPGntkIISl-miZuX-11" value="&lt;span style=&quot;color: rgb(0, 0, 0);&quot;&gt;computeSplineWithPoints()&lt;/span&gt;&lt;b&gt;&lt;font&gt;&lt;br&gt;生成三次样条曲线&lt;/font&gt;&lt;/b&gt;" style="rounded=1;whiteSpace=wrap;html=1;shadow=0;fontColor=#CC0000;" vertex="1" parent="1">
          <mxGeometry x="1077.5" y="70" width="155" height="60" as="geometry" />
        </mxCell>
        <mxCell id="AblfYPGntkIISl-miZuX-12" value="" style="edgeStyle=orthogonalEdgeStyle;rounded=0;orthogonalLoop=1;jettySize=auto;html=1;" edge="1" source="AblfYPGntkIISl-miZuX-13" target="AblfYPGntkIISl-miZuX-15" parent="1">
          <mxGeometry relative="1" as="geometry" />
        </mxCell>
        <mxCell id="AblfYPGntkIISl-miZuX-13" value="计算路径点的数量并初始化x, y, t三个动态数组" style="whiteSpace=wrap;html=1;rounded=0;" vertex="1" parent="1">
          <mxGeometry x="1095" y="210" width="120" height="60" as="geometry" />
        </mxCell>
        <mxCell id="AblfYPGntkIISl-miZuX-14" value="" style="edgeStyle=orthogonalEdgeStyle;rounded=0;orthogonalLoop=1;jettySize=auto;html=1;" edge="1" source="AblfYPGntkIISl-miZuX-15" target="AblfYPGntkIISl-miZuX-16" parent="1">
          <mxGeometry relative="1" as="geometry" />
        </mxCell>
        <mxCell id="AblfYPGntkIISl-miZuX-15" value="将路径点的x, y插入到数组中，t自加表示路径点的索引" style="rounded=0;whiteSpace=wrap;html=1;" vertex="1" parent="1">
          <mxGeometry x="1095" y="350" width="120" height="60" as="geometry" />
        </mxCell>
        <mxCell id="AblfYPGntkIISl-miZuX-19" value="" style="edgeStyle=orthogonalEdgeStyle;rounded=0;orthogonalLoop=1;jettySize=auto;html=1;" edge="1" parent="1" source="AblfYPGntkIISl-miZuX-16" target="AblfYPGntkIISl-miZuX-18">
          <mxGeometry relative="1" as="geometry" />
        </mxCell>
        <mxCell id="AblfYPGntkIISl-miZuX-16" value="调用CubicSpline::Natural函数生成x, y关于t的三次多项式的参数方程，返回值为CubicSpline类型，其中CubicSpline是一个类" style="rounded=0;whiteSpace=wrap;html=1;" vertex="1" parent="1">
          <mxGeometry x="1060" y="490" width="190" height="60" as="geometry" />
        </mxCell>
        <mxCell id="AblfYPGntkIISl-miZuX-18" value="结束" style="whiteSpace=wrap;html=1;rounded=1;" vertex="1" parent="1">
          <mxGeometry x="1095" y="630" width="120" height="60" as="geometry" />
        </mxCell>
        <mxCell id="AblfYPGntkIISl-miZuX-23" value="" style="edgeStyle=orthogonalEdgeStyle;rounded=0;orthogonalLoop=1;jettySize=auto;html=1;" edge="1" parent="1" source="AblfYPGntkIISl-miZuX-20" target="AblfYPGntkIISl-miZuX-22">
          <mxGeometry relative="1" as="geometry" />
        </mxCell>
        <mxCell id="AblfYPGntkIISl-miZuX-20" value="重置仿真器，初始化MPC参数、车辆模型参数、边界条件、MPC代价函数的权重" style="whiteSpace=wrap;html=1;rounded=0;" vertex="1" parent="1">
          <mxGeometry x="375" y="620" width="120" height="60" as="geometry" />
        </mxCell>
        <mxCell id="AblfYPGntkIISl-miZuX-25" value="" style="edgeStyle=orthogonalEdgeStyle;rounded=0;orthogonalLoop=1;jettySize=auto;html=1;" edge="1" parent="1" source="AblfYPGntkIISl-miZuX-22" target="AblfYPGntkIISl-miZuX-24">
          <mxGeometry relative="1" as="geometry" />
        </mxCell>
        <mxCell id="AblfYPGntkIISl-miZuX-22" value="主循环开始" style="whiteSpace=wrap;html=1;rounded=0;" vertex="1" parent="1">
          <mxGeometry x="375" y="760" width="120" height="60" as="geometry" />
        </mxCell>
        <mxCell id="AblfYPGntkIISl-miZuX-37" value="" style="edgeStyle=orthogonalEdgeStyle;rounded=0;orthogonalLoop=1;jettySize=auto;html=1;" edge="1" parent="1" source="AblfYPGntkIISl-miZuX-24" target="AblfYPGntkIISl-miZuX-36">
          <mxGeometry relative="1" as="geometry" />
        </mxCell>
        <mxCell id="AblfYPGntkIISl-miZuX-24" value="调用getPath函数，基于当前位姿和当前的参考轨迹点，&lt;b&gt;&lt;font color=&quot;#cc0000&quot;&gt;计算在预测时域内的一系列轨迹点（有详细流程图）&lt;/font&gt;&lt;/b&gt;" style="whiteSpace=wrap;html=1;rounded=0;" vertex="1" parent="1">
          <mxGeometry x="348.75" y="900" width="172.5" height="60" as="geometry" />
        </mxCell>
        <mxCell id="AblfYPGntkIISl-miZuX-26" value="" style="edgeStyle=orthogonalEdgeStyle;rounded=0;orthogonalLoop=1;jettySize=auto;html=1;" edge="1" source="AblfYPGntkIISl-miZuX-27" target="AblfYPGntkIISl-miZuX-29" parent="1">
          <mxGeometry relative="1" as="geometry" />
        </mxCell>
        <mxCell id="AblfYPGntkIISl-miZuX-27" value="&lt;div&gt;&lt;font color=&quot;#000000&quot;&gt;getPath()&lt;/font&gt;&lt;/div&gt;&lt;b style=&quot;color: rgb(0, 0, 0);&quot;&gt;&lt;font color=&quot;#cc0000&quot;&gt;计算在预测时域内的一系列轨迹点&lt;/font&gt;&lt;/b&gt;" style="rounded=1;whiteSpace=wrap;html=1;shadow=0;fontColor=#CC0000;" vertex="1" parent="1">
          <mxGeometry x="1375" y="70" width="120" height="60" as="geometry" />
        </mxCell>
        <mxCell id="AblfYPGntkIISl-miZuX-28" value="" style="edgeStyle=orthogonalEdgeStyle;rounded=0;orthogonalLoop=1;jettySize=auto;html=1;" edge="1" source="AblfYPGntkIISl-miZuX-29" target="AblfYPGntkIISl-miZuX-31" parent="1">
          <mxGeometry relative="1" as="geometry" />
        </mxCell>
        <mxCell id="AblfYPGntkIISl-miZuX-29" value="调用nearestPointOnSpline函数，找到样条曲线上距离当前点最近的点的自变量t（可以理解为索引，该点记为start_t）" style="whiteSpace=wrap;html=1;rounded=0;" vertex="1" parent="1">
          <mxGeometry x="1350.54" y="210" width="168.91" height="60" as="geometry" />
        </mxCell>
        <mxCell id="AblfYPGntkIISl-miZuX-30" value="" style="edgeStyle=orthogonalEdgeStyle;rounded=0;orthogonalLoop=1;jettySize=auto;html=1;" edge="1" source="AblfYPGntkIISl-miZuX-31" parent="1">
          <mxGeometry relative="1" as="geometry">
            <mxPoint x="1435" y="490" as="targetPoint" />
          </mxGeometry>
        </mxCell>
        <mxCell id="AblfYPGntkIISl-miZuX-31" value="进入for循环，在多项式中查找预测时域内的一系列参考轨迹点，这些点距离点start_t的距离为当前速度乘以时间间隔" style="rounded=0;whiteSpace=wrap;html=1;" vertex="1" parent="1">
          <mxGeometry x="1349.3700000000001" y="350" width="171.26" height="60" as="geometry" />
        </mxCell>
        <mxCell id="AblfYPGntkIISl-miZuX-34" value="结束" style="whiteSpace=wrap;html=1;rounded=1;" vertex="1" parent="1">
          <mxGeometry x="1375" y="490" width="120" height="60" as="geometry" />
        </mxCell>
        <mxCell id="AblfYPGntkIISl-miZuX-36" value="调用update函数，&lt;b&gt;&lt;font color=&quot;#cc0000&quot;&gt;计算MPC输出（有详细流程图）&lt;/font&gt;&lt;/b&gt;" style="whiteSpace=wrap;html=1;rounded=0;" vertex="1" parent="1">
          <mxGeometry x="375" y="1040" width="120" height="60" as="geometry" />
        </mxCell>
      </root>
    </mxGraphModel>
  </diagram>
</mxfile>
